<?xml version="1.0" encoding="UTF-8"?>
<svg version="1.1" xmlns="http://www.w3.org/2000/svg" width="512" height="512">
<path d="M0 0 C4.01118229 0.00461502 8.02206013 -0.00224631 12.03320312 -0.02050781 C32.57219883 -0.11303965 53.01454441 0.02779198 73.49658203 1.69067383 C74.63083681 1.78262055 74.63083681 1.78262055 75.78800583 1.87642479 C120.09580446 5.57017209 168.907492 13.37450647 203.66845703 43.31567383 C204.56822266 44.07750977 205.46798828 44.8393457 206.39501953 45.62426758 C241.23599589 75.99170468 253.2842616 122.10381087 258.91845703 166.31567383 C259.06968018 167.49863037 259.22090332 168.68158691 259.37670898 169.90039062 C259.86441786 174.0347629 260.27960796 178.17102705 260.66845703 182.31567383 C260.7556601 183.20812805 260.84286316 184.10058228 260.93270874 185.02008057 C262.96784417 206.54332191 263.01103973 228.04669624 262.98413086 249.6472168 C262.97951584 253.65839908 262.98637717 257.66927693 263.00463867 261.68041992 C263.09717051 282.21941563 262.95633888 302.66176121 261.29345703 323.14379883 C261.23215921 323.89996868 261.1708614 324.65613853 261.10770607 325.43522263 C257.41395876 369.74302125 249.60962439 418.5547088 219.66845703 453.31567383 C218.52570313 454.66532227 218.52570313 454.66532227 217.35986328 456.04223633 C186.99242618 490.88321269 140.88031999 502.9314784 96.66845703 508.56567383 C95.48550049 508.71689697 94.30254395 508.86812012 93.08374023 509.02392578 C88.94936795 509.51163465 84.8131038 509.92682476 80.66845703 510.31567383 C79.77600281 510.40287689 78.88354858 510.49007996 77.96405029 510.57992554 C56.44080895 512.61506096 34.93743462 512.65825653 13.33691406 512.63134766 C9.32573178 512.62673263 5.31485393 512.63359397 1.30371094 512.65185547 C-19.23528477 512.74438731 -39.67763035 512.60355568 -60.15966797 510.94067383 C-60.91583782 510.87937601 -61.67200768 510.81807819 -62.45109177 510.75492287 C-106.75889039 507.06117556 -155.57057794 499.25684119 -190.33154297 469.31567383 C-191.23130859 468.55383789 -192.13107422 467.79200195 -193.05810547 467.00708008 C-227.89908183 436.63964298 -239.94734754 390.52753678 -245.58154297 346.31567383 C-245.73276611 345.13271729 -245.88398926 343.94976074 -246.03979492 342.73095703 C-246.52750379 338.59658475 -246.9426939 334.4603206 -247.33154297 330.31567383 C-247.41874603 329.4232196 -247.5059491 328.53076538 -247.59579468 327.61126709 C-249.6309301 306.08802575 -249.67412567 284.58465141 -249.6472168 262.98413086 C-249.64260178 258.97294857 -249.64946311 254.96207073 -249.66772461 250.95092773 C-249.76025645 230.41193203 -249.61942482 209.96958644 -247.95654297 189.48754883 C-247.89524515 188.73137897 -247.83394733 187.97520912 -247.77079201 187.19612503 C-244.0770447 142.8883264 -236.27271033 94.07663886 -206.33154297 59.31567383 C-205.56970703 58.4159082 -204.80787109 57.51614258 -204.02294922 56.58911133 C-173.65551212 21.74813497 -127.54340592 9.69986926 -83.33154297 4.06567383 C-82.14858643 3.91445068 -80.96562988 3.76322754 -79.74682617 3.60742188 C-75.61245389 3.119713 -71.47618974 2.7045229 -67.33154297 2.31567383 C-66.43908875 2.22847076 -65.54663452 2.1412677 -64.62713623 2.05142212 C-43.10389489 0.01628669 -21.60052055 -0.02690887 0 0 Z " fill="#000000" transform="translate(249.33154296875,-0.315673828125)"/>
<path d="M0 0 C37.95 0 75.9 0 115 0 C115 1.98 115 3.96 115 6 C114.43603516 6.25168945 113.87207031 6.50337891 113.29101562 6.76269531 C110.69319343 7.92331121 108.09659374 9.08663848 105.5 10.25 C104.1696875 10.84361328 104.1696875 10.84361328 102.8125 11.44921875 C97.47333914 13.84398943 92.21432853 16.34410369 87 19 C89.82849976 36.2281349 100.19505906 54.12405104 107.55078125 69.86328125 C112.48387166 80.54056319 117.03419049 91.39656209 121.65893555 102.2097168 C124.79216915 109.53038726 127.97156571 116.82985852 131.17480469 124.12011719 C132.81534957 127.85745315 134.44853901 131.59803488 136.07885742 135.33984375 C137.99251996 139.72365784 139.93387816 144.09442393 141.88671875 148.4609375 C142.38977539 149.59088135 142.89283203 150.7208252 143.41113281 151.88500977 C144.41771566 154.14531313 145.42868844 156.40366733 146.44433594 158.65991211 C146.90485352 159.69639893 147.36537109 160.73288574 147.83984375 161.80078125 C148.46427368 163.19550659 148.46427368 163.19550659 149.10131836 164.6184082 C150 167 150 167 150 170 C153.16707346 169.31451462 153.16707346 169.31451462 154.34692383 166.64599609 C154.79575928 165.61555176 155.24459473 164.58510742 155.70703125 163.5234375 C156.45895752 161.81534912 156.45895752 161.81534912 157.22607422 160.07275391 C157.75524438 158.84032445 158.28404608 157.60773674 158.8125 156.375 C159.3562341 155.12778726 159.90066889 153.88087977 160.44580078 152.63427734 C163.68461914 145.19800594 166.77900607 137.7164642 169.7265625 130.16015625 C170.97095864 127.07206889 172.32913767 124.07300112 173.75 121.0625 C177.16065224 113.81935169 180.18886951 106.42395044 183.22167969 99.01586914 C185.8160245 92.71390345 188.58656459 86.52033588 191.46484375 80.34326172 C194.08782752 74.63093034 196.53916811 68.84609578 199 63.0625 C200.5 59.54882812 200.5 59.54882812 202 56.03515625 C202.49226074 54.88047852 202.98452148 53.72580078 203.49169922 52.53613281 C207.25298527 43.71799309 211.02044978 34.90286209 214.875 26.125 C215.18179688 25.42503906 215.48859375 24.72507813 215.8046875 24.00390625 C216.53594967 22.33571443 217.26789171 20.66782066 218 19 C216.86498047 18.66162109 216.86498047 18.66162109 215.70703125 18.31640625 C210.56059551 16.48885215 205.64989711 14.21126199 200.6875 11.9375 C199.16672852 11.24817383 199.16672852 11.24817383 197.61523438 10.54492188 C190.13127309 7.13127309 190.13127309 7.13127309 189 6 C189 4.02 189 2.04 189 0 C214.74 0 240.48 0 267 0 C267 1.98 267 3.96 267 6 C266.44763672 6.16975342 265.89527344 6.33950684 265.32617188 6.5144043 C255.36612378 9.93584998 247.33534972 14.63707801 242.39935303 24.17796326 C238.67165089 32.0002258 235.5762148 40.09086742 232.57699585 48.21546936 C230.25010038 54.49843443 227.53819607 60.52424143 224.64306641 66.56225586 C222.1878444 71.69925157 219.90704136 76.90933218 217.625 82.125 C217.15803711 83.18904053 216.69107422 84.25308105 216.20996094 85.34936523 C212.44559941 93.94329257 208.74485646 102.56377038 205.05859375 111.19140625 C201.17170806 120.282551 197.2532295 129.3565055 193.0625 138.3125 C190.59256306 143.61366784 188.31012938 148.97726778 186.0625 154.375 C183.75481405 159.91171605 181.39064355 165.39456961 178.8125 170.8125 C175.19645924 178.44359291 171.84759734 186.18613671 168.5 193.9375 C168.07152771 194.92937317 168.07152771 194.92937317 167.63439941 195.94128418 C166.24465219 199.15930356 164.85610526 202.3778389 163.46826172 205.59667969 C159.21183688 215.46275256 154.91285128 225.30146116 150.359375 235.03515625 C148.84831922 238.330821 147.42817862 241.66758323 146 245 C138.74 245 131.48 245 124 245 C117.76409174 230.85941929 111.54859124 216.71005875 105.36300659 202.5473938 C104.63179887 200.87384215 103.8999856 199.20055492 103.16751099 197.52755737 C99.11857615 188.27774442 95.1291166 179.01092023 91.33258057 169.6541748 C89.21882671 164.45842207 86.90822136 159.37439649 84.52734375 154.296875 C81.95778419 148.75030654 79.53988183 143.13850387 77.1027832 137.53271484 C73.00239619 128.11553201 68.87508531 118.71029015 64.73046875 109.3125 C50.6116836 77.28166997 50.6116836 77.28166997 44.06762695 61.3762207 C41.6898784 55.60783315 39.17628607 49.94294529 36.51171875 44.30078125 C34.47937277 39.86322994 32.58033231 35.37352224 30.6875 30.875 C30.3373584 30.04379639 29.9872168 29.21259277 29.62646484 28.35620117 C28.3271144 25.25269591 27.06450826 22.19352479 26 19 C24.0078711 18.31016896 22.00518047 17.65091915 20 17 C16.47928384 15.23746236 13.05681372 13.30386534 9.625 11.375 C8.69816406 10.859375 7.77132812 10.34375 6.81640625 9.8125 C4.54170575 8.54617189 2.26971208 7.27524075 0 6 C0 4.02 0 2.04 0 0 Z " fill="#FDFDFD" transform="translate(122,136)"/>
</svg>
